HIERARCHY
ROOT Hips
{
	OFFSET 0.000000 0.000000 0.000000 
	CHANNELS 6 Xposition Yposition Zposition Yrotation Zrotation Xrotation 
	JOINT Lumbar
	{
		OFFSET 0.000000 0.000000 0.000000 
		CHANNELS 3 Zrotation Xrotation Yrotation
		JOINT Neck
		{
			OFFSET 0.000000 0.445665 0.000000 
			CHANNELS 3 Zrotation Xrotation Yrotation
			End Site
			{
				OFFSET 0.000000 0.227535 0.000000 
			}
		}
		JOINT RightShoulder
		{
			OFFSET 0.019635 0.377685 0.194865 
			CHANNELS 3 Zrotation Xrotation Yrotation
			JOINT RightElbow
			{
				OFFSET 0.000000 -0.243375 0.000000 
				CHANNELS 2 Zrotation Yrotation
				JOINT RightWrist
				{
					OFFSET 0.000000 -0.264825 0.000000 
					CHANNELS 2 Zrotation Xrotation
					End Site
					{
						OFFSET 0.006600 -0.176220 0.000990 
					}
				}
			}
		}
		JOINT LeftShoulder
		{
			OFFSET 0.019635 0.377685 -0.194865 
			CHANNELS 3 Zrotation Xrotation Yrotation
			JOINT LeftElbow
			{
				OFFSET 0.000000 -0.243375 0.000000 
				CHANNELS 2 Zrotation Yrotation
				JOINT LeftWrist
				{
					OFFSET 0.000000 -0.264825 0.000000 
					CHANNELS 2 Zrotation Xrotation
					End Site
					{
						OFFSET 0.006600 -0.176220 -0.000990 
					}
				}
			}
		}
	}
	JOINT RightHip
	{
		OFFSET 0.052140 -0.069960 0.075570 
		CHANNELS 3 Zrotation Xrotation Yrotation
		JOINT RightKnee
		{
			OFFSET 0.000000 -0.402270 0.000000 
			CHANNELS 1 Zrotation
			JOINT RightAnkle
			{
				OFFSET 0.000000 -0.404085 0.000000 
				CHANNELS 3 Zrotation Xrotation Yrotation
				End Site
				{
					OFFSET 0.204105 -0.089430 0.008415 
				}
			}
		}
	}
	JOINT LeftHip
	{
		OFFSET 0.052140 -0.069960 -0.075570 
		CHANNELS 3 Zrotation Xrotation Yrotation
		JOINT LeftKnee
		{
			OFFSET 0.000000 -0.402270 0.000000 
			CHANNELS 1 Zrotation
			JOINT LeftAnkle
			{
				OFFSET 0.000000 -0.404085 0.000000 
				CHANNELS 3 Zrotation Xrotation Yrotation
				End Site
				{
					OFFSET 0.204105 -0.089430 -0.008415 
				}
			}
		}
	}
}
MOTION
Frames: 19
Frame Time: 0.02
-0.00015 -1e-05 5e-05 21.96663 -29.67903 -7.26517 49.90932 2.7578 -2.43895 -21.78662 -1.46575 -0.26752 41.61027 -106.71839 55.63289 12.35688 105.46944 5.94715 -4.45741 27.75127 106.09518 -55.62976 7.07165 -87.48108 8.23939 -0.13651 44.13264 -5.80218 -3.82611 -21.85849 -6.82541 -2.80974 -3.61427 48.34306 12.10441 3.5903 -27.05746 -6.77642 1.79322 3.11775
-0.00015 -1e-05 4e-05 21.96153 -29.68162 -7.26676 49.91351 2.75998 -2.43774 -21.76949 -1.46412 -0.26878 41.66637 -106.68885 55.6329 12.33449 103.48336 6.036 -4.14488 27.72261 106.07313 -55.62976 7.07049 -87.46044 8.23521 -0.13803 44.1319 -5.84844 -4.06786 -21.85737 -6.81929 -2.7921 -3.60358 48.34509 12.10618 3.59456 -27.05724 -6.77606 1.79743 3.1206
-0.00015 -2e-05 4e-05 21.95646 -29.68419 -7.26835 49.91769 2.76215 -2.43655 -21.7524 -1.46248 -0.27003 41.72235 -106.65936 55.6329 12.3122 101.50341 6.12455 -3.8333 27.69405 106.05112 -55.62976 7.06933 -87.43984 8.23104 -0.13957 44.13115 -5.89457 -4.30895 -21.85625 -6.8132 -2.7745 -3.59292 48.34712 12.10791 3.59867 -27.05704 -6.7757 1.80164 3.12344
-0.00015 -2e-05 3e-05 21.95138 -29.68676 -7.26994 49.92186 2.76432 -2.43534 -21.73532 -1.46085 -0.27129 41.7783 -106.62991 55.6329 12.28989 99.52345 6.21312 -3.52172 27.66548 106.02913 -55.62976 7.06817 -87.41926 8.22687 -0.14109 44.1304 -5.94068 -4.54996 -21.85514 -6.8071 -2.75691 -3.58226 48.34915 12.10967 3.60288 -27.05683 -6.77535 1.80584 3.12628
-0.00016 -3e-05 2e-05 21.94628 -29.68936 -7.27153 49.92606 2.7665 -2.4341 -21.71818 -1.45923 -0.27254 41.83432 -106.60042 55.6329 12.26746 97.53737 6.30199 -3.20922 27.63683 106.00713 -55.62976 7.067 -87.39865 8.22271 -0.14258 44.12968 -5.98692 -4.7916 -21.85402 -6.80099 -2.73928 -3.57158 48.35119 12.11149 3.60734 -27.05661 -6.77499 1.81004 3.12912
-0.00016 -3e-05 2e-05 21.94126 -29.69187 -7.27311 49.9302 2.76867 -2.433 -21.70122 -1.45756 -0.2738 41.89018 -106.57092 55.6329 12.24548 95.57039 6.38987 -2.89958 27.60843 105.98511 -55.62976 7.06589 -87.37807 8.21851 -0.14421 44.12887 -6.03284 -5.03156 -21.85291 -6.79491 -2.72173 -3.56096 48.35317 12.11305 3.61075 -27.05642 -6.77464 1.81426 3.13197
-0.00016 -3e-05 1e-05 21.93609 -29.69456 -7.27471 49.93445 2.77085 -2.43164 -21.68393 -1.456 -0.27505 41.94637 -106.54147 55.6329 12.22262 93.56726 6.47964 -2.58453 27.57955 105.96313 -55.62976 7.06465 -87.35746 8.21439 -0.14557 44.12824 -6.07933 -5.27458 -21.85178 -6.78878 -2.70406 -3.55024 48.35528 12.1151 3.61615 -27.05618 -6.77429 1.81844 3.1348
-0.00016 -4e-05 0 21.93105 -29.69709 -7.27629 49.93859 2.77302 -2.4305 -21.66693 -1.45434 -0.27631 42.00216 -106.51202 55.6329 12.20055 91.59725 6.56769 -2.27446 27.55115 105.94113 -55.62976 7.06353 -87.33689 8.21021 -0.14716 44.12744 -6.12532 -5.51486 -21.85067 -6.7827 -2.68649 -3.5396 48.35727 12.11674 3.6199 -27.05598 -6.77393 1.82265 3.13764
-0.00016 -4e-05 -0 21.9262 -29.69938 -7.27787 49.9426 2.77518 -2.42969 -21.65032 -1.45254 -0.27757 42.05788 -106.48236 55.63291 12.17952 89.66777 6.65356 -1.97036 27.52317 105.91903 -55.62976 7.06258 -87.3163 8.2059 -0.14909 44.12642 -6.1706 -5.75156 -21.84958 -6.77667 -2.66907 -3.5291 48.3591 12.11772 3.62087 -27.05584 -6.77356 1.82694 3.14051
-0.00016 -5e-05 -1e-05 21.92034 -29.70291 -7.27952 49.94739 2.7774 -2.42716 -21.63156 -1.45146 -0.2788 42.11524 -106.45327 55.63289 12.15274 87.50516 6.75176 -1.63155 27.49227 105.89728 -55.62976 7.0607 -87.2956 8.20216 -0.14926 44.12663 -6.2197 -6.00819 -21.84836 -6.77032 -2.65085 -3.5179 48.36182 12.12203 3.63558 -27.05542 -6.77324 1.83086 3.14328
-0.00016 -5e-05 -2e-05 21.91658 -29.7039 -7.28098 49.95054 2.77951 -2.42817 -21.61728 -1.44892 -0.28009 42.16834 -106.42339 55.63293 12.13796 85.83454 6.82407 -1.36622 27.46784 105.87492 -55.62976 7.06074 -87.27526 8.19732 -0.15303 44.12429 -6.26089 -6.22319 -21.84742 -6.76465 -2.63428 -3.50814 48.36268 12.11961 3.62274 -27.05556 -6.77284 1.83552 3.14621
-0.00016 -5e-05 -3e-05 21.91882 -29.69734 -7.28237 49.94909 2.78115 -2.43967 -21.61591 -1.44185 -0.28159 42.21635 -106.38816 55.63314 12.15743 85.526 6.82332 -1.30244 27.45904 105.84991 -55.62977 7.06649 -87.25474 8.18859 -0.16764 44.11427 -6.27904 -6.3194 -21.84718 -6.76089 -2.62242 -3.50247 48.35822 12.09609 3.52116 -27.05743 -6.77216 1.84269 3.14999
-0.00016 -6e-05 -4e-05 21.9231 -29.68832 -7.28349 49.94601 2.78273 -2.45459 -21.61894 -1.43339 -0.28315 42.25889 -106.35282 55.63341 12.18875 85.70937 6.79679 -1.31247 27.45719 105.82451 -55.62977 7.07409 -87.23479 8.17885 -0.18573 44.1018 -6.28951 -6.37472 -21.84723 -6.75781 -2.61215 -3.49821 48.35194 12.06623 3.39406 -27.05983 -6.77142 1.85051 3.15385
-0.00016 -6e-05 -6e-05 21.92629 -29.6808 -7.28444 49.94376 2.78445 -2.46746 -21.61955 -1.4259 -0.28464 42.2996 -106.31953 55.63363 12.2137 85.65966 6.78355 -1.28878 27.45353 105.79982 -55.62978 7.0805 -87.21532 8.17025 -0.20155 44.0909 -6.30435 -6.45158 -21.84719 -6.75439 -2.60101 -3.49321 48.34664 12.04108 3.28758 -27.06185 -6.77076 1.85769 3.15738
-0.00016 -6e-05 -7e-05 21.93021 -29.67167 -7.28663 49.94119 2.78566 -2.48246 -21.62186 -1.41698 -0.28629 42.35846 -106.27746 55.63393 12.2426 85.65071 6.76425 -1.26597 27.44406 105.77262 -55.62978 7.08829 -87.19271 8.15909 -0.22012 44.07811 -6.31539 -6.51553 -21.84698 -6.7511 -2.59052 -3.48864 48.34067 12.00849 3.14412 -27.06446 -6.76991 1.86631 3.16212
-0.00016 -6e-05 -9e-05 21.93305 -29.66528 -7.28618 49.93882 2.78795 -2.49379 -21.62175 -1.41069 -0.28764 42.37829 -106.25409 55.63409 12.26638 85.67405 6.75066 -1.25883 27.44852 105.7509 -55.62979 7.09379 -87.17677 8.15265 -0.23399 44.06864 -6.33261 -6.59713 -21.84719 -6.7477 -2.57901 -3.48348 48.33568 11.98955 3.07016 -27.06599 -6.76942 1.87211 3.1644
-0.00018 -7e-05 -0.00012 21.9327 -29.66731 -7.27848 49.9379 2.79298 -2.49447 -21.61332 -1.41221 -0.28808 42.2914 -106.27842 55.63386 12.27043 85.65935 6.76624 -1.27653 27.48821 105.74137 -55.62979 7.09129 -87.1789 8.16284 -0.23224 44.0692 -6.36814 -6.7333 -21.84852 -6.74389 -2.56487 -3.47667 48.33388 12.0128 3.2072 -27.06423 -6.76995 1.86965 3.15938
-0.0002 -7e-05 -0.00015 21.93115 -29.67212 -7.26813 49.93715 2.79914 -2.49128 -21.60243 -1.41638 -0.28823 42.16579 -106.32221 55.6335 12.26937 85.66134 6.7872 -1.30749 27.54199 105.73789 -55.6298 7.08662 -87.18765 8.17727 -0.22595 44.07315 -6.41022 -6.88913 -21.85026 -6.73994 -2.54958 -3.46918 48.33314 12.04948 3.41275 -27.06141 -6.77084 1.86438 3.15196
-0.00022 -7e-05 -0.00018 21.92991 -29.67545 -7.25899 49.93597 2.80497 -2.4896 -21.59297 -1.41924 -0.28856 42.05773 -106.35984 55.63322 12.27247 85.65997 6.80094 -1.33264 27.5903 105.73366 -55.62982 7.08376 -87.1936 8.18751 -0.22293 44.07536 -6.44982 -7.03914 -21.85179 -6.73601 -2.53441 -3.46178 48.33189 12.07803 3.5784 -27.05919 -6.77156 1.86055 3.14594
